<svg width="984" height="179" viewBox="0 0 984 179" fill="none" xmlns="http://www.w3.org/2000/svg">
    <path d="M58.5317 62.6423C69.5793 62.6423 77.727 65.3352 82.9746 70.7209C88.2222 75.9685 91.6746 82.8043 93.3317 91.2281L89.8103 89.3638L91.4675 86.0495C93.1246 82.8733 95.6794 79.49 99.1318 75.8995C102.584 72.1709 106.727 69.0638 111.56 66.5781C116.532 63.9542 122.056 62.6423 128.132 62.6423C138.075 62.6423 145.601 64.7828 150.71 69.0638C155.958 73.3447 159.549 79.0757 161.482 86.2566C163.415 93.2995 164.382 101.171 164.382 109.871V162.9C164.382 166.49 163.208 169.528 160.86 172.014C158.513 174.362 155.544 175.535 151.953 175.535C148.363 175.535 145.394 174.362 143.046 172.014C140.698 169.528 139.525 166.49 139.525 162.9V109.871C139.525 105.314 138.972 101.24 137.868 97.6495C136.763 93.9209 134.76 90.9519 131.86 88.7424C128.96 86.5328 124.818 85.4281 119.432 85.4281C114.184 85.4281 109.696 86.5328 105.967 88.7424C102.239 90.9519 99.4079 93.9209 97.4746 97.6495C95.6794 101.24 94.7817 105.314 94.7817 109.871V162.9C94.7817 166.49 93.6079 169.528 91.2603 172.014C88.9127 174.362 85.9436 175.535 82.3532 175.535C78.7627 175.535 75.7936 174.362 73.446 172.014C71.0984 169.528 69.9246 166.49 69.9246 162.9V109.871C69.9246 105.314 69.3722 101.24 68.2674 97.6495C67.1627 93.9209 65.1603 90.9519 62.2603 88.7424C59.3603 86.5328 55.2174 85.4281 49.8317 85.4281C44.584 85.4281 40.0959 86.5328 36.3674 88.7424C32.6388 90.9519 29.8078 93.9209 27.8745 97.6495C26.0793 101.24 25.1816 105.314 25.1816 109.871V162.9C25.1816 166.49 24.0078 169.528 21.6602 172.014C19.3126 174.362 16.3435 175.535 12.7531 175.535C9.16257 175.535 6.19352 174.362 3.8459 172.014C1.49827 169.528 0.324463 166.49 0.324463 162.9V77.3495C0.324463 73.759 1.49827 70.79 3.8459 68.4423C6.19352 65.9566 9.16257 64.7138 12.7531 64.7138C16.3435 64.7138 19.3126 65.9566 21.6602 68.4423C24.0078 70.79 25.1816 73.759 25.1816 77.3495V86.2566L22.0745 85.6352C23.3174 83.2876 25.0435 80.8019 27.2531 78.1781C29.4626 75.4162 32.1555 72.8614 35.3317 70.5138C38.5079 68.1661 42.0293 66.3019 45.896 64.9209C49.7626 63.4019 53.9745 62.6423 58.5317 62.6423Z" fill="white"/>
    <path d="M298.792 120.228C298.792 131.552 296.237 141.564 291.128 150.264C286.156 158.826 279.389 165.523 270.828 170.357C262.404 175.19 252.944 177.607 242.449 177.607C231.954 177.607 222.425 175.19 213.863 170.357C205.439 165.523 198.673 158.826 193.563 150.264C188.592 141.564 186.106 131.552 186.106 120.228C186.106 108.904 188.592 98.9614 193.563 90.3995C198.673 81.6995 205.439 74.9328 213.863 70.0995C222.425 65.128 231.954 62.6423 242.449 62.6423C252.944 62.6423 262.404 65.128 270.828 70.0995C279.389 74.9328 286.156 81.6995 291.128 90.3995C296.237 98.9614 298.792 108.904 298.792 120.228ZM273.935 120.228C273.935 113.185 272.485 107.109 269.585 102C266.823 96.7519 263.025 92.6781 258.192 89.7781C253.497 86.8781 248.249 85.4281 242.449 85.4281C236.649 85.4281 231.332 86.8781 226.499 89.7781C221.804 92.6781 218.006 96.7519 215.106 102C212.344 107.109 210.963 113.185 210.963 120.228C210.963 127.133 212.344 133.209 215.106 138.457C218.006 143.566 221.804 147.571 226.499 150.471C231.332 153.371 236.649 154.821 242.449 154.821C248.249 154.821 253.497 153.371 258.192 150.471C263.025 147.571 266.823 143.566 269.585 138.457C272.485 133.209 273.935 127.133 273.935 120.228Z" fill="white"/>
    <path d="M378.754 62.6423C389.802 62.6423 397.949 65.3352 403.197 70.7209C408.444 75.9685 411.897 82.8043 413.554 91.2281L410.033 89.3638L411.69 86.0495C413.347 82.8733 415.902 79.49 419.354 75.8995C422.806 72.1709 426.949 69.0638 431.783 66.5781C436.754 63.9542 442.278 62.6423 448.354 62.6423C458.297 62.6423 465.823 64.7828 470.933 69.0638C476.18 73.3447 479.771 79.0757 481.704 86.2566C483.637 93.2995 484.604 101.171 484.604 109.871V162.9C484.604 166.49 483.43 169.528 481.083 172.014C478.735 174.362 475.766 175.535 472.176 175.535C468.585 175.535 465.616 174.362 463.268 172.014C460.921 169.528 459.747 166.49 459.747 162.9V109.871C459.747 105.314 459.195 101.24 458.09 97.6495C456.985 93.9209 454.983 90.9519 452.083 88.7424C449.183 86.5328 445.04 85.4281 439.654 85.4281C434.406 85.4281 429.918 86.5328 426.19 88.7424C422.461 90.9519 419.63 93.9209 417.697 97.6495C415.902 101.24 415.004 105.314 415.004 109.871V162.9C415.004 166.49 413.83 169.528 411.483 172.014C409.135 174.362 406.166 175.535 402.575 175.535C398.985 175.535 396.016 174.362 393.668 172.014C391.321 169.528 390.147 166.49 390.147 162.9V109.871C390.147 105.314 389.594 101.24 388.49 97.6495C387.385 93.9209 385.383 90.9519 382.483 88.7424C379.583 86.5328 375.44 85.4281 370.054 85.4281C364.806 85.4281 360.318 86.5328 356.59 88.7424C352.861 90.9519 350.03 93.9209 348.097 97.6495C346.302 101.24 345.404 105.314 345.404 109.871V162.9C345.404 166.49 344.23 169.528 341.883 172.014C339.535 174.362 336.566 175.535 332.975 175.535C329.385 175.535 326.416 174.362 324.068 172.014C321.721 169.528 320.547 166.49 320.547 162.9V77.3495C320.547 73.759 321.721 70.79 324.068 68.4423C326.416 65.9566 329.385 64.7138 332.975 64.7138C336.566 64.7138 339.535 65.9566 341.883 68.4423C344.23 70.79 345.404 73.759 345.404 77.3495V86.2566L342.297 85.6352C343.54 83.2876 345.266 80.8019 347.475 78.1781C349.685 75.4162 352.378 72.8614 355.554 70.5138C358.73 68.1661 362.252 66.3019 366.118 64.9209C369.985 63.4019 374.197 62.6423 378.754 62.6423Z" fill="white"/>
    <path d="M638.486 9.98654C642.794 12.1408 645.28 15.538 645.943 20.178C646.771 24.818 645.611 29.0437 642.463 32.8552C640.308 35.838 637.491 37.4951 634.011 37.8266C630.697 38.158 627.3 37.4951 623.82 35.838C619.843 34.0151 615.617 32.6066 611.143 31.6123C606.834 30.618 602.277 30.1209 597.471 30.1209C588.523 30.1209 580.486 31.5294 573.36 34.3466C566.4 37.1637 560.434 41.2237 555.463 46.5266C550.491 51.6637 546.68 57.7952 544.028 64.9209C541.543 72.0466 540.3 79.9181 540.3 88.5352C540.3 98.6438 541.708 107.427 544.525 114.884C547.508 122.341 551.568 128.555 556.705 133.527C561.843 138.498 567.891 142.227 574.851 144.712C581.811 147.032 589.351 148.192 597.471 148.192C601.946 148.192 606.42 147.778 610.894 146.95C615.368 146.121 619.677 144.63 623.82 142.475C627.3 140.818 630.697 140.238 634.011 140.735C637.491 141.232 640.391 142.972 642.711 145.955C646.026 150.098 647.186 154.407 646.191 158.881C645.363 163.19 642.877 166.338 638.734 168.327C634.426 170.481 629.951 172.304 625.311 173.795C620.837 175.121 616.28 176.115 611.64 176.778C607 177.607 602.277 178.021 597.471 178.021C585.54 178.021 574.188 176.115 563.417 172.304C552.811 168.492 543.283 162.858 534.831 155.401C526.545 147.944 520 138.664 515.194 127.561C510.388 116.292 507.985 103.284 507.985 88.5352C507.985 75.7752 510.14 64.0095 514.448 53.238C518.923 42.4666 525.137 33.1866 533.091 25.398C541.211 17.4437 550.74 11.3123 561.677 7.00368C572.614 2.52938 584.546 0.292236 597.471 0.292236C604.763 0.292236 611.888 1.12081 618.848 2.77795C625.808 4.4351 632.354 6.83796 638.486 9.98654Z" fill="white"/>
    <path d="M758.078 62.6423C761.669 62.6423 764.638 63.8162 766.986 66.1638C769.333 68.5114 770.507 71.5495 770.507 75.2781V162.9C770.507 166.49 769.333 169.528 766.986 172.014C764.638 174.362 761.669 175.535 758.078 175.535C754.488 175.535 751.519 174.362 749.171 172.014C746.824 169.528 745.65 166.49 745.65 162.9V152.75L750.207 154.614C750.207 156.409 749.24 158.619 747.307 161.242C745.374 163.728 742.75 166.214 739.436 168.7C736.121 171.185 732.186 173.326 727.628 175.121C723.209 176.778 718.376 177.607 713.128 177.607C703.6 177.607 694.969 175.19 687.235 170.357C679.502 165.385 673.357 158.619 668.8 150.057C664.381 141.357 662.171 131.414 662.171 120.228C662.171 108.904 664.381 98.9614 668.8 90.3995C673.357 81.6995 679.433 74.9328 687.028 70.0995C694.623 65.128 703.047 62.6423 712.3 62.6423C718.238 62.6423 723.693 63.54 728.664 65.3352C733.635 67.1304 737.916 69.409 741.507 72.1709C745.235 74.9328 748.066 77.7638 750 80.6638C752.071 83.4257 753.107 85.7733 753.107 87.7067L745.65 90.3995V75.2781C745.65 71.6876 746.824 68.7185 749.171 66.3709C751.519 63.8852 754.488 62.6423 758.078 62.6423ZM716.235 154.821C722.312 154.821 727.628 153.302 732.185 150.264C736.743 147.226 740.264 143.083 742.75 137.835C745.374 132.588 746.685 126.719 746.685 120.228C746.685 113.6 745.374 107.661 742.75 102.414C740.264 97.1662 736.743 93.0233 732.185 89.9852C727.628 86.9471 722.312 85.4281 716.235 85.4281C710.297 85.4281 705.05 86.9471 700.493 89.9852C695.935 93.0233 692.345 97.1662 689.721 102.414C687.235 107.661 685.993 113.6 685.993 120.228C685.993 126.719 687.235 132.588 689.721 137.835C692.345 143.083 695.935 147.226 700.493 150.264C705.05 153.302 710.297 154.821 716.235 154.821Z" fill="white"/>
    <path d="M809.85 175.535C806.259 175.535 803.29 174.362 800.942 172.014C798.595 169.528 797.421 166.49 797.421 162.9V77.3495C797.421 73.759 798.595 70.79 800.942 68.4423C803.29 65.9566 806.259 64.7138 809.85 64.7138C813.44 64.7138 816.409 65.9566 818.757 68.4423C821.104 70.79 822.278 73.759 822.278 77.3495V96.821L820.828 82.9424C822.347 79.6281 824.281 76.7281 826.628 74.2423C829.114 71.6185 831.876 69.4781 834.914 67.8209C837.952 66.0257 841.197 64.7138 844.65 63.8852C848.102 63.0566 851.554 62.6423 855.007 62.6423C859.15 62.6423 862.602 63.8162 865.364 66.1638C868.264 68.5114 869.714 71.2733 869.714 74.4495C869.714 79.0066 868.54 82.3209 866.193 84.3924C863.845 86.3257 861.29 87.2924 858.528 87.2924C855.904 87.2924 853.488 86.809 851.278 85.8424C849.207 84.8757 846.79 84.3924 844.028 84.3924C841.543 84.3924 838.988 85.0138 836.364 86.2566C833.878 87.3614 831.531 89.1567 829.321 91.6424C827.25 94.1281 825.523 97.2352 824.142 100.964C822.9 104.554 822.278 108.835 822.278 113.807V162.9C822.278 166.49 821.104 169.528 818.757 172.014C816.409 174.362 813.44 175.535 809.85 175.535Z" fill="white"/>
    <path d="M934.784 177.607C923.046 177.607 912.827 175.19 904.127 170.357C895.565 165.385 888.937 158.688 884.241 150.264C879.684 141.84 877.406 132.311 877.406 121.678C877.406 109.25 879.891 98.6852 884.863 89.9852C889.972 81.1471 896.601 74.3804 904.749 69.6852C912.896 64.9899 921.527 62.6423 930.642 62.6423C937.684 62.6423 944.313 64.0923 950.527 66.9923C956.88 69.8923 962.473 73.8971 967.306 79.0066C972.139 83.9781 975.937 89.7781 978.699 96.4067C981.599 103.035 983.049 110.078 983.049 117.535C982.911 120.85 981.599 123.542 979.113 125.614C976.627 127.685 973.727 128.721 970.413 128.721H891.284L885.07 108.007H961.092L956.534 112.15V106.557C956.258 102.552 954.808 98.9614 952.184 95.7852C949.699 92.609 946.523 90.1233 942.656 88.3281C938.927 86.3947 934.923 85.4281 930.642 85.4281C926.499 85.4281 922.632 85.9805 919.042 87.0852C915.451 88.19 912.344 90.0543 909.72 92.6781C907.096 95.3019 905.025 98.8233 903.506 103.242C901.987 107.661 901.227 113.254 901.227 120.021C901.227 127.478 902.746 133.831 905.784 139.078C908.961 144.188 912.965 148.123 917.799 150.885C922.77 153.509 928.018 154.821 933.542 154.821C938.651 154.821 942.725 154.407 945.763 153.578C948.801 152.75 951.218 151.783 953.013 150.678C954.946 149.435 956.673 148.4 958.192 147.571C960.677 146.328 963.025 145.707 965.234 145.707C968.273 145.707 970.758 146.742 972.692 148.814C974.763 150.885 975.799 153.302 975.799 156.064C975.799 159.792 973.865 163.176 969.999 166.214C966.408 169.252 961.368 171.945 954.877 174.292C948.387 176.502 941.689 177.607 934.784 177.607Z" fill="white"/>
    <circle cx="596.966" cy="88.6241" r="24.752" fill="#850E35"/>
</svg>
